# xmcd
#
# Track frame offsets:
#	150
#	16450
#	32863
#	45633
#	56923
#	75350
#	90278
#	107710
#	122112
#	135954
#	152013
#	167818
#
# Disc length: 2423 seconds
#
# Revision: 1
# Processed by: cddbd v1.5.2PL0 Copyright (c) Steve Scherf et al.
# Submitted via: audiograbber 1.83.01
#
DISCID=8d09750c
DTITLE=Mark Chesnutt - Rollin' With the Flow
DYEAR=2008
DGENRE=Country
TTITLE0=Things to Do In Wichita
TTITLE1=When You Love Her Like Crazy
TTITLE2=Rollin' With the Flow
TTITLE3=Going On Later On
TTITLE4=Live to Be 100
TTITLE5=When I Get This Close to You
TTITLE6=(Come On In) The Whiskey's Fine
TTITLE7=If the Devil Brought You Roses
TTITLE8=Woman
TTITLE9=Man In the Mirror
TTITLE10=Long Way to Go
TTITLE11=She Never Got Me Over You
EXTD=
EXTT0=
EXTT1=
EXTT2=
EXTT3=
EXTT4=
EXTT5=
EXTT6=
EXTT7=
EXTT8=
EXTT9=
EXTT10=
EXTT11=
PLAYORDER=
